<svg width="19" height="22" viewBox="0 0 19 22" fill="none" xmlns="http://www.w3.org/2000/svg">
<path id="Vector" d="M13.5 16.25V19.625C13.5 20.246 12.996 20.75 12.375 20.75H2.625C2.32663 20.75 2.04048 20.6315 1.8295 20.4205C1.61853 20.2095 1.5 19.9234 1.5 19.625V6.875C1.5 6.254 2.004 5.75 2.625 5.75H4.5C5.00257 5.74966 5.5043 5.79114 6 5.874M13.5 16.25H16.875C17.496 16.25 18 15.746 18 15.125V10.25C18 5.79 14.757 2.089 10.5 1.374C10.0043 1.29114 9.50257 1.24966 9 1.25H7.125C6.504 1.25 6 1.754 6 2.375V5.874M13.5 16.25H7.125C6.82663 16.25 6.54048 16.1315 6.3295 15.9205C6.11853 15.7095 6 15.4234 6 15.125V5.874M18 12.5V10.625C18 9.7299 17.6444 8.87145 17.0115 8.23852C16.3786 7.60558 15.5201 7.25 14.625 7.25H13.125C12.8266 7.25 12.5405 7.13148 12.3295 6.9205C12.1185 6.70952 12 6.42337 12 6.125V4.625C12 4.18179 11.9127 3.74292 11.7431 3.33345C11.5735 2.92397 11.3249 2.55191 11.0115 2.23852C10.6981 1.92512 10.326 1.67652 9.91656 1.50691C9.50708 1.3373 9.06821 1.25 8.625 1.25H7.5" stroke="black" stroke-width="1.5" stroke-linecap="round" stroke-linejoin="round"/>
</svg>
