<svg width="42" height="40" viewBox="0 0 42 40" fill="none" xmlns="http://www.w3.org/2000/svg">
<g id="Group 1171275830">
<g id="Vector" filter="url(#filter0_d_5_508)">
<path d="M29.2404 18.9108C30.6248 17.8221 31.5051 16.1869 31.5051 14.3585C31.5051 12.5303 30.6248 10.895 29.2404 9.80635C29.399 9.73419 29.5517 9.65589 29.6972 9.57103C30.6155 9.03485 31.6993 8.72519 32.8602 8.72519C36.1733 8.72519 38.8591 11.2474 38.8591 14.3585C38.8591 17.4698 36.1733 19.9919 32.8602 19.9919C31.6993 19.9919 30.6155 19.6823 29.6972 19.1461C29.5517 19.0613 29.399 18.983 29.2404 18.9108Z" fill="black"/>
</g>
<g id="Vector_2" filter="url(#filter1_d_5_508)">
<path d="M27.5737 15.2469C28.193 13.654 28.0848 11.8245 27.1113 10.2411C26.1378 8.65775 24.5047 7.65497 22.7261 7.36217C22.8251 7.22522 22.9156 7.08571 22.9963 6.94391C23.5061 6.04842 24.2799 5.27133 25.2852 4.72625C28.1545 3.17064 31.8234 4.09381 33.4799 6.78821C35.1364 9.48263 34.1534 12.928 31.2841 14.4836C30.2788 15.0286 29.1752 15.2694 28.0945 15.2363C27.9234 15.2309 27.7495 15.2349 27.5737 15.2469Z" fill="black"/>
</g>
<g id="Vector_3" filter="url(#filter2_d_5_508)">
<path d="M24.18 12.8543C23.8682 11.1841 22.8003 9.65046 21.1142 8.7363C19.4281 7.82213 17.4799 7.72051 15.7837 8.30204C15.7966 8.13696 15.8007 7.97363 15.795 7.81295C15.7597 6.79804 16.0161 5.76174 16.5965 4.81763C18.2531 2.12323 21.922 1.20005 24.7912 2.75567C27.6604 4.31129 28.6436 7.75662 26.9869 10.4511C26.4065 11.3951 25.579 12.1218 24.6254 12.6005C24.4745 12.6763 24.3259 12.7613 24.18 12.8543Z" fill="black"/>
</g>
<g id="Vector_4" filter="url(#filter3_d_5_508)">
<path d="M19.9645 12.3769C18.8051 11.0769 17.0638 10.2501 15.1168 10.2501C13.1698 10.2501 11.4285 11.0769 10.2692 12.3769C10.1924 12.2279 10.109 12.0845 10.0186 11.9479C9.44767 11.0856 9.11792 10.0678 9.11792 8.97764C9.11792 5.86639 11.8037 3.34424 15.1168 3.34424C18.4299 3.34424 21.1157 5.86639 21.1157 8.97764C21.1157 10.0678 20.786 11.0856 20.2151 11.9479C20.1246 12.0845 20.0412 12.2279 19.9645 12.3769Z" fill="black"/>
</g>
<g id="Vector_5" filter="url(#filter4_d_5_508)">
<path d="M16.0628 13.9413C14.3666 13.3598 12.4183 13.4614 10.7322 14.3755C9.04611 15.2897 7.97826 16.8233 7.66647 18.4935C7.52064 18.4005 7.37206 18.3156 7.22107 18.2398C6.26747 17.761 5.43996 17.0344 4.85952 16.0903C3.20296 13.3958 4.18603 9.95055 7.05526 8.39491C9.9245 6.83929 13.5933 7.76246 15.25 10.4569C15.8304 11.401 16.0868 12.4373 16.0514 13.4522C16.0458 13.6128 16.0499 13.7762 16.0628 13.9413Z" fill="black"/>
</g>
<g id="Vector_6" filter="url(#filter5_d_5_508)">
<path d="M13.5127 17.1297C11.7341 17.4225 10.101 18.4253 9.12751 20.0087C8.15403 21.592 8.04581 23.4216 8.66508 25.0144C8.48928 25.0023 8.31532 24.9985 8.1442 25.0037C7.06345 25.0369 5.95992 24.7962 4.95456 24.2511C2.08532 22.6954 1.10225 19.2501 2.7588 16.5557C4.41535 13.8613 8.08422 12.9381 10.9535 14.4938C11.9588 15.0388 12.7326 15.8159 13.2424 16.7113C13.3231 16.8532 13.4137 16.9927 13.5127 17.1297Z" fill="black"/>
</g>
<g id="Vector_7" filter="url(#filter6_d_5_508)">
<path d="M13.0022 21.0869C11.6178 22.1756 10.7374 23.8108 10.7374 25.6391C10.7374 27.4675 11.6178 29.1027 13.0022 30.1914C12.8435 30.2634 12.6908 30.3418 12.5454 30.4267C11.6271 30.9628 10.5433 31.2725 9.38238 31.2725C6.06928 31.2725 3.38348 28.7504 3.38348 25.6391C3.38348 22.5278 6.06928 20.0057 9.38238 20.0057C10.5433 20.0057 11.6271 20.3154 12.5454 20.8516C12.6908 20.9364 12.8435 21.0147 13.0022 21.0869Z" fill="black"/>
</g>
<g id="Vector_8" filter="url(#filter7_d_5_508)">
<path d="M14.6681 24.7522C14.0487 26.345 14.1569 28.1745 15.1304 29.7579C16.104 31.3414 17.7371 32.3441 19.5156 32.6369C19.4166 32.7739 19.3261 32.9134 19.2454 33.0552C18.7356 33.9507 17.9618 34.7277 16.9565 35.2728C14.0872 36.8285 10.4183 35.9052 8.7618 33.2109C7.10524 30.5164 8.08832 27.0711 10.9575 25.5155C11.9629 24.9704 13.0665 24.7297 14.1472 24.7629C14.3183 24.7681 14.4922 24.7642 14.6681 24.7522Z" fill="black"/>
</g>
<g id="Vector_9" filter="url(#filter8_d_5_508)">
<path d="M18.0653 27.1458C18.3771 28.816 19.4449 30.3496 21.131 31.2637C22.8171 32.1778 24.7655 32.2795 26.4617 31.6979C26.4488 31.8631 26.4447 32.0263 26.4503 32.1871C26.4856 33.202 26.2293 34.2383 25.6488 35.1824C23.9922 37.8768 20.3234 38.8 17.4541 37.2443C14.5848 35.6887 13.6018 32.2434 15.2584 29.549C15.8389 28.6049 16.6663 27.8782 17.6199 27.3995C17.7709 27.3237 17.9195 27.2386 18.0653 27.1458Z" fill="black"/>
</g>
<g id="Vector_10" filter="url(#filter9_d_5_508)">
<path d="M22.2792 27.6257C23.4386 28.9257 25.1799 29.7525 27.1269 29.7525C29.0739 29.7525 30.8152 28.9257 31.9746 27.6257C32.0513 27.7747 32.1347 27.918 32.2251 28.0545C32.796 28.9169 33.1258 29.9348 33.1258 31.0249C33.1258 34.1362 30.44 36.6583 27.1269 36.6583C23.8138 36.6583 21.128 34.1362 21.128 31.0249C21.128 29.9348 21.4577 28.9169 22.0286 28.0545C22.1191 27.918 22.2025 27.7747 22.2792 27.6257Z" fill="black"/>
</g>
<g id="Vector_11" filter="url(#filter10_d_5_508)">
<path d="M26.1824 26.0607C27.8786 26.6423 29.8268 26.5406 31.5129 25.6265C33.199 24.7124 34.2669 23.1788 34.5787 21.5085C34.7245 21.6014 34.873 21.6865 35.0241 21.7623C35.9777 22.241 36.8052 22.9677 37.3856 23.9118C39.0422 26.6062 38.0591 30.0515 35.1899 31.6072C32.3206 33.1628 28.6518 32.2396 26.9952 29.5452C26.4148 28.6011 26.1584 27.5648 26.1937 26.5499C26.1993 26.3892 26.1952 26.2259 26.1824 26.0607Z" fill="black"/>
</g>
<g id="Vector_12" filter="url(#filter11_d_5_508)">
<path d="M33.118 19.987C33.1168 19.989 33.1156 19.991 33.1144 19.9929C32.141 21.5763 30.5079 22.5791 28.7293 22.8719C28.8282 23.0089 28.9188 23.1484 28.9995 23.2901C29.5093 24.1857 30.2831 24.9628 31.2885 25.5078C34.1577 27.0635 37.8266 26.1403 39.4832 23.4459C40.9033 21.1359 40.3834 18.274 38.3981 16.5241C37.526 18.4896 35.5021 19.8916 33.118 19.987Z" fill="black"/>
</g>
</g>
<defs>
<filter id="filter0_d_5_508" x="27.9473" y="7.43216" width="12.2048" height="13.8528" filterUnits="userSpaceOnUse" color-interpolation-filters="sRGB">
<feFlood flood-opacity="0" result="BackgroundImageFix"/>
<feColorMatrix in="SourceAlpha" type="matrix" values="0 0 0 0 0 0 0 0 0 0 0 0 0 0 0 0 0 0 127 0" result="hardAlpha"/>
<feOffset/>
<feGaussianBlur stdDeviation="0.646516"/>
<feComposite in2="hardAlpha" operator="out"/>
<feColorMatrix type="matrix" values="0 0 0 0 1 0 0 0 0 1 0 0 0 0 1 0 0 0 0.25 0"/>
<feBlend mode="normal" in2="BackgroundImageFix" result="effect1_dropShadow_5_508"/>
<feBlend mode="normal" in="SourceGraphic" in2="effect1_dropShadow_5_508" result="shape"/>
</filter>
<filter id="filter1_d_5_508" x="21.433" y="2.67755" width="14.1446" height="13.8624" filterUnits="userSpaceOnUse" color-interpolation-filters="sRGB">
<feFlood flood-opacity="0" result="BackgroundImageFix"/>
<feColorMatrix in="SourceAlpha" type="matrix" values="0 0 0 0 0 0 0 0 0 0 0 0 0 0 0 0 0 0 127 0" result="hardAlpha"/>
<feOffset/>
<feGaussianBlur stdDeviation="0.646516"/>
<feComposite in2="hardAlpha" operator="out"/>
<feColorMatrix type="matrix" values="0 0 0 0 1 0 0 0 0 1 0 0 0 0 1 0 0 0 0.25 0"/>
<feBlend mode="normal" in2="BackgroundImageFix" result="effect1_dropShadow_5_508"/>
<feBlend mode="normal" in="SourceGraphic" in2="effect1_dropShadow_5_508" result="shape"/>
</filter>
<filter id="filter2_d_5_508" x="14.4907" y="0.706969" width="14.5941" height="13.4403" filterUnits="userSpaceOnUse" color-interpolation-filters="sRGB">
<feFlood flood-opacity="0" result="BackgroundImageFix"/>
<feColorMatrix in="SourceAlpha" type="matrix" values="0 0 0 0 0 0 0 0 0 0 0 0 0 0 0 0 0 0 127 0" result="hardAlpha"/>
<feOffset/>
<feGaussianBlur stdDeviation="0.646516"/>
<feComposite in2="hardAlpha" operator="out"/>
<feColorMatrix type="matrix" values="0 0 0 0 1 0 0 0 0 1 0 0 0 0 1 0 0 0 0.25 0"/>
<feBlend mode="normal" in2="BackgroundImageFix" result="effect1_dropShadow_5_508"/>
<feBlend mode="normal" in="SourceGraphic" in2="effect1_dropShadow_5_508" result="shape"/>
</filter>
<filter id="filter3_d_5_508" x="7.82489" y="2.05121" width="14.5839" height="11.6187" filterUnits="userSpaceOnUse" color-interpolation-filters="sRGB">
<feFlood flood-opacity="0" result="BackgroundImageFix"/>
<feColorMatrix in="SourceAlpha" type="matrix" values="0 0 0 0 0 0 0 0 0 0 0 0 0 0 0 0 0 0 127 0" result="hardAlpha"/>
<feOffset/>
<feGaussianBlur stdDeviation="0.646516"/>
<feComposite in2="hardAlpha" operator="out"/>
<feColorMatrix type="matrix" values="0 0 0 0 1 0 0 0 0 1 0 0 0 0 1 0 0 0 0.25 0"/>
<feBlend mode="normal" in2="BackgroundImageFix" result="effect1_dropShadow_5_508"/>
<feBlend mode="normal" in="SourceGraphic" in2="effect1_dropShadow_5_508" result="shape"/>
</filter>
<filter id="filter4_d_5_508" x="2.76178" y="6.34621" width="14.5941" height="13.4403" filterUnits="userSpaceOnUse" color-interpolation-filters="sRGB">
<feFlood flood-opacity="0" result="BackgroundImageFix"/>
<feColorMatrix in="SourceAlpha" type="matrix" values="0 0 0 0 0 0 0 0 0 0 0 0 0 0 0 0 0 0 127 0" result="hardAlpha"/>
<feOffset/>
<feGaussianBlur stdDeviation="0.646516"/>
<feComposite in2="hardAlpha" operator="out"/>
<feColorMatrix type="matrix" values="0 0 0 0 1 0 0 0 0 1 0 0 0 0 1 0 0 0 0.25 0"/>
<feBlend mode="normal" in2="BackgroundImageFix" result="effect1_dropShadow_5_508"/>
<feBlend mode="normal" in="SourceGraphic" in2="effect1_dropShadow_5_508" result="shape"/>
</filter>
<filter id="filter5_d_5_508" x="0.66107" y="12.445" width="14.1447" height="13.8624" filterUnits="userSpaceOnUse" color-interpolation-filters="sRGB">
<feFlood flood-opacity="0" result="BackgroundImageFix"/>
<feColorMatrix in="SourceAlpha" type="matrix" values="0 0 0 0 0 0 0 0 0 0 0 0 0 0 0 0 0 0 127 0" result="hardAlpha"/>
<feOffset/>
<feGaussianBlur stdDeviation="0.646516"/>
<feComposite in2="hardAlpha" operator="out"/>
<feColorMatrix type="matrix" values="0 0 0 0 1 0 0 0 0 1 0 0 0 0 1 0 0 0 0.25 0"/>
<feBlend mode="normal" in2="BackgroundImageFix" result="effect1_dropShadow_5_508"/>
<feBlend mode="normal" in="SourceGraphic" in2="effect1_dropShadow_5_508" result="shape"/>
</filter>
<filter id="filter6_d_5_508" x="2.09045" y="18.7127" width="12.2048" height="13.8528" filterUnits="userSpaceOnUse" color-interpolation-filters="sRGB">
<feFlood flood-opacity="0" result="BackgroundImageFix"/>
<feColorMatrix in="SourceAlpha" type="matrix" values="0 0 0 0 0 0 0 0 0 0 0 0 0 0 0 0 0 0 127 0" result="hardAlpha"/>
<feOffset/>
<feGaussianBlur stdDeviation="0.646516"/>
<feComposite in2="hardAlpha" operator="out"/>
<feColorMatrix type="matrix" values="0 0 0 0 1 0 0 0 0 1 0 0 0 0 1 0 0 0 0.25 0"/>
<feBlend mode="normal" in2="BackgroundImageFix" result="effect1_dropShadow_5_508"/>
<feBlend mode="normal" in="SourceGraphic" in2="effect1_dropShadow_5_508" result="shape"/>
</filter>
<filter id="filter7_d_5_508" x="6.66406" y="23.4591" width="14.1446" height="13.8624" filterUnits="userSpaceOnUse" color-interpolation-filters="sRGB">
<feFlood flood-opacity="0" result="BackgroundImageFix"/>
<feColorMatrix in="SourceAlpha" type="matrix" values="0 0 0 0 0 0 0 0 0 0 0 0 0 0 0 0 0 0 127 0" result="hardAlpha"/>
<feOffset/>
<feGaussianBlur stdDeviation="0.646516"/>
<feComposite in2="hardAlpha" operator="out"/>
<feColorMatrix type="matrix" values="0 0 0 0 1 0 0 0 0 1 0 0 0 0 1 0 0 0 0.25 0"/>
<feBlend mode="normal" in2="BackgroundImageFix" result="effect1_dropShadow_5_508"/>
<feBlend mode="normal" in="SourceGraphic" in2="effect1_dropShadow_5_508" result="shape"/>
</filter>
<filter id="filter8_d_5_508" x="13.1606" y="25.8527" width="14.5941" height="13.4403" filterUnits="userSpaceOnUse" color-interpolation-filters="sRGB">
<feFlood flood-opacity="0" result="BackgroundImageFix"/>
<feColorMatrix in="SourceAlpha" type="matrix" values="0 0 0 0 0 0 0 0 0 0 0 0 0 0 0 0 0 0 127 0" result="hardAlpha"/>
<feOffset/>
<feGaussianBlur stdDeviation="0.646516"/>
<feComposite in2="hardAlpha" operator="out"/>
<feColorMatrix type="matrix" values="0 0 0 0 1 0 0 0 0 1 0 0 0 0 1 0 0 0 0.25 0"/>
<feBlend mode="normal" in2="BackgroundImageFix" result="effect1_dropShadow_5_508"/>
<feBlend mode="normal" in="SourceGraphic" in2="effect1_dropShadow_5_508" result="shape"/>
</filter>
<filter id="filter9_d_5_508" x="19.835" y="26.3326" width="14.5839" height="11.6187" filterUnits="userSpaceOnUse" color-interpolation-filters="sRGB">
<feFlood flood-opacity="0" result="BackgroundImageFix"/>
<feColorMatrix in="SourceAlpha" type="matrix" values="0 0 0 0 0 0 0 0 0 0 0 0 0 0 0 0 0 0 127 0" result="hardAlpha"/>
<feOffset/>
<feGaussianBlur stdDeviation="0.646516"/>
<feComposite in2="hardAlpha" operator="out"/>
<feColorMatrix type="matrix" values="0 0 0 0 1 0 0 0 0 1 0 0 0 0 1 0 0 0 0.25 0"/>
<feBlend mode="normal" in2="BackgroundImageFix" result="effect1_dropShadow_5_508"/>
<feBlend mode="normal" in="SourceGraphic" in2="effect1_dropShadow_5_508" result="shape"/>
</filter>
<filter id="filter10_d_5_508" x="24.8893" y="20.2155" width="14.5941" height="13.4404" filterUnits="userSpaceOnUse" color-interpolation-filters="sRGB">
<feFlood flood-opacity="0" result="BackgroundImageFix"/>
<feColorMatrix in="SourceAlpha" type="matrix" values="0 0 0 0 0 0 0 0 0 0 0 0 0 0 0 0 0 0 127 0" result="hardAlpha"/>
<feOffset/>
<feGaussianBlur stdDeviation="0.646516"/>
<feComposite in2="hardAlpha" operator="out"/>
<feColorMatrix type="matrix" values="0 0 0 0 1 0 0 0 0 1 0 0 0 0 1 0 0 0 0.25 0"/>
<feBlend mode="normal" in2="BackgroundImageFix" result="effect1_dropShadow_5_508"/>
<feBlend mode="normal" in="SourceGraphic" in2="effect1_dropShadow_5_508" result="shape"/>
</filter>
<filter id="filter11_d_5_508" x="27.4363" y="15.2311" width="14.1446" height="12.3255" filterUnits="userSpaceOnUse" color-interpolation-filters="sRGB">
<feFlood flood-opacity="0" result="BackgroundImageFix"/>
<feColorMatrix in="SourceAlpha" type="matrix" values="0 0 0 0 0 0 0 0 0 0 0 0 0 0 0 0 0 0 127 0" result="hardAlpha"/>
<feOffset/>
<feGaussianBlur stdDeviation="0.646516"/>
<feComposite in2="hardAlpha" operator="out"/>
<feColorMatrix type="matrix" values="0 0 0 0 1 0 0 0 0 1 0 0 0 0 1 0 0 0 0.25 0"/>
<feBlend mode="normal" in2="BackgroundImageFix" result="effect1_dropShadow_5_508"/>
<feBlend mode="normal" in="SourceGraphic" in2="effect1_dropShadow_5_508" result="shape"/>
</filter>
</defs>
</svg>
