<svg width="22" height="19" viewBox="0 0 22 19" fill="none" xmlns="http://www.w3.org/2000/svg">
<path id="Vector" d="M1 15.5539C6.33561 15.5495 11.648 16.2561 16.797 17.6549C17.524 17.8529 18.25 17.3129 18.25 16.5589V15.5539M2.5 1.30389V2.05389C2.5 2.25281 2.42098 2.44357 2.28033 2.58422C2.13968 2.72488 1.94891 2.80389 1.75 2.80389H1M1 2.80389V2.42889C1 1.80789 1.504 1.30389 2.125 1.30389H19M1 2.80389V11.8039M19 1.30389V2.05389C19 2.46789 19.336 2.80389 19.75 2.80389H20.5M19 1.30389H19.375C19.996 1.30389 20.5 1.80789 20.5 2.42889V12.1789C20.5 12.7999 19.996 13.3039 19.375 13.3039H19M1 11.8039V12.1789C1 12.4773 1.11853 12.7634 1.3295 12.9744C1.54048 13.1854 1.82663 13.3039 2.125 13.3039H2.5M1 11.8039H1.75C1.94891 11.8039 2.13968 11.8829 2.28033 12.0236C2.42098 12.1642 2.5 12.355 2.5 12.5539V13.3039M19 13.3039V12.5539C19 12.355 19.079 12.1642 19.2197 12.0236C19.3603 11.8829 19.5511 11.8039 19.75 11.8039H20.5M19 13.3039H2.5M13.75 7.30389C13.75 8.09954 13.4339 8.86261 12.8713 9.42521C12.3087 9.98782 11.5456 10.3039 10.75 10.3039C9.95435 10.3039 9.19129 9.98782 8.62868 9.42521C8.06607 8.86261 7.75 8.09954 7.75 7.30389C7.75 6.50824 8.06607 5.74518 8.62868 5.18257C9.19129 4.61996 9.95435 4.30389 10.75 4.30389C11.5456 4.30389 12.3087 4.61996 12.8713 5.18257C13.4339 5.74518 13.75 6.50824 13.75 7.30389ZM16.75 7.30389H16.758V7.31189H16.75V7.30389ZM4.75 7.30389H4.758V7.31189H4.75V7.30389Z" stroke="#0C0C0C" stroke-width="1.5" stroke-linecap="round" stroke-linejoin="round"/>
</svg>
