<svg width="116" height="116" viewBox="0 0 116 116" fill="none" xmlns="http://www.w3.org/2000/svg">
<path id="Vector" d="M40.3333 62.4167L53.5833 75.6667L75.6667 44.75M111 58C111 65.4671 107.29 72.0744 101.619 76.0671C102.23 79.5579 101.991 83.1444 100.922 86.5231C99.8525 89.9018 97.9848 92.9731 95.4769 95.4769C92.9731 97.9848 89.9018 99.8525 86.5231 100.922C83.1444 101.991 79.5579 102.23 76.0671 101.619C74.0308 104.519 71.3257 106.886 68.1807 108.519C65.0358 110.152 61.5436 111.003 58 111C50.5329 111 43.9256 107.29 39.9329 101.619C36.4421 102.229 32.8557 101.99 29.4771 100.921C26.0985 99.8518 23.0272 97.9844 20.5231 95.4769C18.0152 92.9731 16.1475 89.9018 15.0784 86.5231C14.0092 83.1444 13.77 79.5579 14.381 76.0671C11.4809 74.0308 9.11411 71.3257 7.48115 68.1807C5.84819 65.0358 4.99712 61.5436 5.00001 58C5.00001 50.5329 8.71001 43.9256 14.381 39.9329C13.77 36.4421 14.0092 32.8556 15.0784 29.4769C16.1475 26.0982 18.0152 23.0269 20.5231 20.5231C23.0272 18.0156 26.0985 16.1482 29.4771 15.0791C32.8557 14.01 36.4421 13.7705 39.9329 14.381C41.9695 11.4812 44.6748 9.11473 47.8196 7.48181C50.9645 5.8489 54.4565 4.99761 58 5.00001C65.4671 5.00001 72.0744 8.71 76.0671 14.381C79.5579 13.7705 83.1443 14.01 86.5229 15.0791C89.9015 16.1482 92.9728 18.0156 95.4769 20.5231C97.9844 23.0272 99.8518 26.0985 100.921 29.4771C101.99 32.8557 102.23 36.4421 101.619 39.9329C104.519 41.9692 106.886 44.6743 108.519 47.8193C110.152 50.9642 111.003 54.4564 111 58Z" stroke="white" stroke-width="8.83333" stroke-linecap="round" stroke-linejoin="round"/>
</svg>
